<svg xmlns="http://www.w3.org/2000/svg" width="300" height="300">
    <symbol id="github" viewBox="0 0 3000 3000">
        <g class="transform-group">
            <g transform="scale(0.1953125, 0.1953125)">
                <path d="M941.714 512q0 143.433-83.712 258.011t-216.283 158.574q-15.433 2.853-22.565-3.986t-7.131-17.152v-120.576q0-55.442-29.696-81.152 
                    32.585-3.438 58.587-10.277t53.723-22.272 46.299-37.998 30.281-60.014 11.703-86.016q0-69.157-45.129-117.723 21.138-52.005-4.571-116.553-16.018-5.157-46.299 
                    6.29t-52.553 25.161l-21.723 13.714q-53.138-14.848-109.714-14.848t-109.714 14.848q-9.143-6.29-24.283-15.433t-47.726-22.016-49.152-7.717q-25.161 
                    64.585-3.986 116.553-45.129 48.567-45.129 117.723 0 48.567 11.703 85.723t29.989 60.014 46.007 38.29 53.723 22.272 58.587 10.277q-22.857 20.553-28.014 
                    58.843-11.995 5.705-25.71 8.558t-32.585 2.853-37.413-12.288-31.707-35.73q-10.862-18.286-27.721-29.696t-28.27-13.714l-11.447-1.719q-11.995 0-16.567 
                    2.56t-2.853 6.583 5.157 8.009 7.424 6.839l3.986 2.853q12.581 5.705 24.869 21.723t17.993 29.147l5.705 13.129q7.424 21.723 25.161 35.145t38.29 17.152 
                    39.717 3.986 31.707-2.011l13.129-2.304q0 21.723 0.293 50.871t0.293 30.866q0 10.277-7.424 17.152t-22.857 3.986q-132.571-43.995-216.283-158.574t-83.712-258.011q0-119.442 
                    58.843-220.27t159.707-159.707 220.27-58.843 220.27 58.843 159.707 159.707 58.843 220.27z" fill="#272636">
                </path>
            </g>
        </g>
    </symbol>

    <symbol id="wechat" viewBox="0 0 3000 3000">
        <g class="transform-group">
            <g transform="scale(0.1953125, 0.1953125)">
                <path d="M816.240189 583.92103c-24.158213 0-43.833321-20.086477-43.833321-45.01831 0-24.791639 19.676132-44.878117 43.833321-44.878117 24.159236 
                    0 43.830251 20.086477 43.830251 44.878117C860.07044 563.834552 840.400448 583.92103 816.240189 583.92103M590.784344 583.92103c-24.163329 0-43.833321-20.086477-43.833321-45.01831 
                    0-24.791639 19.671015-44.878117 43.833321-44.878117 24.15412 0 43.825135 20.086477 43.825135 44.878117C634.609479 563.834552 614.938464 583.92103 590.784344 
                    583.92103M1017.538845 647.868457c0-145.438417-127.686101-264.520559-289.518906-274.78739-7.573489-0.419556-15.162328-0.710175-22.747073-0.710175-172.507936 0-312.281329 
                    123.363655-312.281329 275.497565 0 22.941502 3.235694 45.158503 9.269108 66.38392 33.56956 120.100332 156.483984 209.128995 303.011198 209.128995 49.862641 0 96.915283-10.265808 
                    138.632407-28.64234l70.097498 48.578392c0 0 18.688641 13.245675 16.865109-12.256138l-19.807115-76.064396C976.386586 804.568359 1017.538845 730.488153 1017.538845 647.868457M227.097228 
                    338.03897c-24.173562 0-43.831274-20.074198-43.831274-44.86686 0-24.926716 19.658735-45.013193 43.831274-45.013193 24.293289 0 43.826158 20.086477 43.826158 45.013193C270.924409 
                    317.963749 251.390517 338.03897 227.097228 338.03897M503.120772 248.158916c24.173562 0 43.830251 20.086477 43.830251 45.013193 0 24.792663-19.656689 44.86686-43.830251 44.86686-24.295336 
                    0-43.831274-20.074198-43.831274-44.86686C459.288474 268.245394 478.825436 248.158916 503.120772 248.158916M705.273888 349.428368c6.734378 0 13.331633 0.295735 19.946284 
                    0.586354-25.711592-154.00042-176.020946-272.244474-357.650633-272.244474-199.61327 0-361.448122 142.895501-361.448122 318.956356 0 98.156554 50.29243 185.900967 129.241526 
                    244.450455l-26.698059 102.137215c0 0-9.121751 33.901111 25.434276 18.672268l99.596346-68.960605c41.438785 14.675234 86.532819 22.801309 133.874033 22.801309 4.072759 0 
                    7.998161-0.290619 11.932774-0.290619-5.760191-21.801539-8.846482-44.447305-8.846482-67.664076C370.655831 483.343333 520.81783 349.428368 705.273888 349.428368" fill="#272636">
                </path>
            </g>
        </g>
    </symbol>

    <symbol id="weibo" viewBox="0 0 3000 3000">
        <g class="transform-group">
            <g transform="scale(0.1953125, 0.1953125)">
                <path d="M730.47792 491.709885c0 0 129.105427-229.116211-244.296959-108.85829 46.810119-36.676317 39.247886-111.410416 2.514263-137.952932-136.705522-98.743932-470.802716 
                    216.430284-470.802716 403.764903 0 113.905236 122.752742 262.011412 402.478608 262.011412 351.906815 0 461.994096-192.401008 461.994096-286.039665C882.365212 495.491001 
                    730.47792 491.709885 730.47792 491.709885zM431.944709 861.389482c-163.92035 15.276938-305.192887-62.470797-315.500651-173.688831-10.422374-111.180172 114.058732-213.704197 
                    278.017968-228.962715 163.92035-15.257495 305.192887 62.470797 315.53749 173.669388C720.345142 743.606938 595.902922 846.131987 431.944709 861.389482zM374.060371 538.980491c-88.763626 
                    15.027252-150.274562 88.87926-137.377834 164.860768 12.858866 76.020394 95.212502 125.477806 183.976128 110.469997 88.724741-15.027252 150.2367-88.820931 137.377834-164.860768C545.138748 
                    573.431118 462.823997 523.991102 374.060371 538.980491zM358.63096 755.832378c-28.67304 7.869225-57.80759-7.023974-65.080228-33.278941-7.196912-26.331715 10.191106-54.025451 
                    38.826284-61.932538 28.67304-7.907087 57.80759 6.986111 65.041342 33.278941C404.653133 720.192669 387.302977 747.887428 358.63096 755.832378zM433.095929 671.425989c-14.739702 
                    0-26.696012-11.918447-26.696012-26.65815 0-14.72026 11.95631-26.676569 26.696012-26.676569 14.739702 0 26.657126 11.975752 26.657126 26.676569C459.754079 659.507542 447.835631 
                    671.425989 433.095929 671.425989zM950.689321 207.647247C891.769396 132.318608 797.343817 99.653651 684.878372 115.678626c-18.961864 2.687202-32.166607 20.24816-29.459962 39.228443 
                    2.667759 18.922978 20.171412 32.070416 39.210024 29.421077 111.37153-15.890922 171.040515 27.13808 201.478757 66.059532 39.957037 51.14689 51.243081 124.039038 28.039613 181.327812-7.196912 
                    17.752316 1.343601 37.981033 19.11536 45.159526 4.28049 1.727341 8.655124 2.552126 13.012362 2.552126 13.684674 0 26.657126-8.176217 32.127721-21.649066C1020.643556 378.227274 1005.500671 
                    277.718139 950.689321 207.647247zM718.213595 241.521752c-18.885116 2.705622-32.088836 20.266579-29.383214 39.210024 2.705622 18.942421 20.171412 32.088836 39.210024 29.421077 31.858592-4.568039 
                    56.67479 3.090385 71.567989 22.128997 13.414521 17.196661 17.388019 42.433438 9.749038 61.414745-7.196912 17.752316 1.382487 37.96159 19.11536 45.159526 4.317329 1.727341 8.655124 2.533706 
                    13.012362 2.533706 13.684674 0 26.696012-8.176217 32.127721-21.649066 17.10047-42.145889 9.480932-93.235474-19.384489-130.161479C836.513932 266.893606 795.270599 230.504838 718.213595 241.521752z" fill="#272636">
                </path>
            </g>
        </g>
    </symbol>
    <symbol id="weibo" viewBox="0 0 3000 3000">
        <g class="transform-group">
            <g transform="scale(0.1953125, 0.1953125)">
                <path d="M351.791182 562.469462l192.945407 0c0-45.367257-21.3871-71.939449-21.3871-71.939449L355.897709 490.530013c3.977591-82.182744 7.541767-187.659007 8.816806-226.835262l159.282726 0c0 
                    0-0.86367-67.402109-18.578124-67.402109s-279.979646 0-279.979646 0 16.850783-88.141456 39.318494-127.053698c0 0-83.60514-4.510734-112.121614 106.962104S81.344656 355.077018 76.80834 
                    367.390461c-4.536316 12.313443 24.62791 5.832845 36.941354 0 12.313443-5.832845 68.050885-25.924439 84.252893-103.69571l86.570681 0c1.165546 49.28652 4.596691 200.335724 3.515057 226.835262L109.86113 
                    490.530013c-25.275663 18.147312-33.701566 71.939449-33.701566 71.939449L279.868105 562.469462c-8.497535 56.255235-23.417339 128.763642-44.275389 167.210279-33.05279 60.921511-50.55235 116.65793-169.802314 
                    212.576513 0 0-19.442818 14.257725 40.829917 9.073656 60.273758-5.185093 117.305683-20.739347 156.840094-99.807147 20.553105-41.107233 41.805128-93.250824 58.386782-146.138358l-0.055259 0.185218 167.855986 
                    193.263655c0 0 22.035876-51.847855 5.832845-108.880803L371.045711 650.610918l-42.1244 31.157627-0.045025 0.151449c11.69946-41.020252 20.11206-81.5749 22.726607-116.858498C351.665315 564.212152 351.72876 563.345412 
                    351.791182 562.469462zM584.918753 182.033893l0 668.840094 70.318532 0 28.807093 80.512708 121.875768-80.512708 153.600307 0L959.520453 182.033893 584.918753 182.033893zM887.150192 778.934538l-79.837326 0-99.578949 
                    65.782216-23.537066-65.782216-24.855084 0L659.341766 256.673847l227.807403 0L887.149169 778.934538z" fill="#272636">
                </path>
            </g>
        </g>
    </symbol>

    <!-- <svg> -->
        <use href="#wechat" x="0" y="0"></use>
        <use href="#weibo" x="30" y="0"></use>
        <use href="#github" x="60" y="0"></use>
    <!-- </svg> -->

    

</svg>




